# xmcd CD database file
#
# Track frame offsets:
#	182
#	20975
#	52090
#	80457
#	105105
#	130857
#
# Disc length: 2679 seconds
#
# Revision: 0
# Processed by: cddbd v1.4PL0 Copyright (c) Steve Scherf et al.
# Submitted via: CDex 1.50beta10
#
DISCID=470a7506
DTITLE=Buddy Rich - Live at Ronnie Scott's
DYEAR=1980
DGENRE=Jazz
TTITLE0=Beulah Witch
TTITLE1=Grand Concourse
TTITLE2=Blues A Las 88 (Ernie's Blues)
TTITLE3=Saturday Night
TTITLE4=Slow Funk
TTITLE5=Good News
EXTD=YEAR: 1980
EXTT0=
EXTT1=
EXTT2=
EXTT3=
EXTT4=
EXTT5=
PLAYORDER=
